<?xml version="1.0" encoding="utf-8"?>
<!-- Generator: Adobe Illustrator 25.1.0, SVG Export Plug-In . SVG Version: 6.00 Build 0)  -->
<svg version="1.1" id="Layer_1" xmlns="http://www.w3.org/2000/svg" xmlns:xlink="http://www.w3.org/1999/xlink" x="0px" y="0px"
	 viewBox="0 0 191 45" style="enable-background:new 0 0 191 45;" xml:space="preserve">
<style type="text/css">
	.st0{fill:#FFFFFF;}
</style>
<g>
	<g>
		<g>
			<path class="st0" d="M15.5,32.5C4.4,32.5,0,25.3,0,16.3C0,7.7,5.3,0.2,15.8,0.2c2.1,0,3.9,0.3,5.8,0.8c0.4,0.2,0.8,0.2,1.3,0.2
				c0.4,0,0.8,0,1.1-0.1l0.9-0.4v10.5L23.8,10c-1.8-2-5.1-3.3-7.9-3.3c-5.8,0-8.2,4.6-8.2,9.5c0,5.3,2.3,9.6,8.4,9.6
				c3.1,0,7-1.4,9.1-3.4l1.1-1.1v8.6L26,30.2c-0.8,0.4-1.5,0.7-2.4,1C20.9,32.1,17.9,32.5,15.5,32.5z"/>
			<path class="st0" d="M41.6,17.7v-2.5h-7.9v2.5c0,1.4,0.2,4.2,0.6,5.5l0.2,0.6h-6.9l0.2-0.6c0.5-1.2,0.6-4.1,0.6-5.5V8
				c0-1.4-0.1-4.3-0.6-5.5l-0.2-0.6h6.9l-0.2,0.6c-0.5,1.2-0.6,4.1-0.6,5.5v2.5h7.9V8c0-1.4-0.1-4.3-0.6-5.5l-0.2-0.6h6.9l-0.2,0.6
				C47,3.7,46.9,6.6,46.9,8v9.6c0,1.4,0.1,4.2,0.6,5.5l0.2,0.6h-6.9l0.2-0.5c0.1-0.3,0.2-0.7,0.3-1.2C41.5,20.6,41.6,18.7,41.6,17.7
				z"/>
			<path class="st0" d="M55.3,23.7H48l0.5-0.6c0.9-1.3,1.8-3.9,2.3-5.5L53.7,8c0.4-1.3,1.2-4.2,1-5.5L54.6,2h8.8l-0.1,0.4
				c0,1.9,0.5,3.6,1,5.5l2.9,9.6c0.5,1.6,1.3,4.2,2.3,5.5l0.5,0.6h-7.4l0.1-0.5c0-1.5-0.2-2.8-0.6-4.2h-6.3
				c-0.2,1.2-0.7,3.2-0.5,4.2L55.3,23.7z M60.9,14.4C60.3,12,59.7,9.6,59,7.3c-0.7,2.4-1.3,4.8-1.9,7.1H60.9z"/>
			<path class="st0" d="M86.8,9c0,2.8-1.3,5.3-4.3,6.4c0.7,1.1,1.5,2.4,2.5,3.8c1.1,1.6,2.2,3,3.2,3.8l0.9,0.7h-8.5v-0.4
				c0-0.9-0.6-2.3-1.5-3.8c-0.8-1.3-1.7-2.7-2.2-3.5h-0.6v1.7c0,1.4,0.1,4.2,0.6,5.5l0.2,0.6h-6.9l0.2-0.6c0.5-1.2,0.6-4,0.6-5.5V8
				c0-1.4-0.2-4.3-0.6-5.5l-0.2-0.6h8.7c2.3,0,4.3,0.7,5.7,1.9C86.1,5.1,86.8,6.9,86.8,9z M79.1,6.6h-2.7v4.8h2.7
				c1.6,0,2.6-0.9,2.6-2.4S80.7,6.6,79.1,6.6z"/>
			<path class="st0" d="M96.8,23.7h-7.4l0.5-0.6c0.9-1.3,1.8-3.9,2.3-5.5L95.1,8c0.4-1.3,1.2-4.2,1-5.5L96,2h8.8l-0.1,0.4
				c0,1.9,0.5,3.6,1,5.5l2.9,9.6c0.5,1.6,1.3,4.2,2.3,5.5l0.5,0.6H104l0.1-0.5c0-1.5-0.2-2.8-0.6-4.2h-6.3c-0.2,1.2-0.7,3.2-0.5,4.2
				L96.8,23.7z M102.4,14.4c-0.6-2.4-1.2-4.8-1.9-7.1c-0.7,2.4-1.3,4.8-1.9,7.1H102.4z"/>
			<path class="st0" d="M121.3,24.1c-7.8,0-10.8-5-10.8-11.3c0-6.1,3.7-11.3,11.1-11.3c1.5,0,2.7,0.2,4,0.6c0.2,0.1,0.5,0.1,0.9,0.1
				c0.2,0,0.6,0,0.8-0.1l0.6-0.2v7.4l-0.8-0.9c-1.2-1.4-3.6-2.3-5.5-2.3c-4.1,0-5.7,3.2-5.7,6.7c0,3.7,1.6,6.7,5.9,6.7
				c2.2,0,4.9-1,6.4-2.3l0.8-0.7v6l-0.2,0.1c-0.5,0.3-1.1,0.5-1.7,0.7C125.1,23.9,123,24.1,121.3,24.1z"/>
			<path class="st0" d="M134.5,17.7V6.6c-1.6,0-4,0.2-5.1,0.6l-0.7,0.3l0.5-5.5H145l0.6,5.5l-0.8-0.3c-1.1-0.4-3.6-0.6-5.2-0.6v11.1
				c0,1.4,0.2,4.2,0.6,5.5l0.2,0.6h-6.9l0.2-0.6c0.1-0.3,0.2-0.7,0.3-1.2C134.5,20.6,134.5,18.7,134.5,17.7z"/>
			<path class="st0" d="M162.8,18.5l0.7-0.2l-0.5,5.4h-17.3l0.2-0.6c0.5-1.2,0.6-4,0.6-5.5V8c0-1.4-0.2-4.3-0.6-5.5l-0.2-0.6h16.5
				l0.5,5.5l-0.8-0.2c-1.3-0.5-4.1-0.6-5.6-0.6h-4.6v4h3.1c1.4,0,4.3-0.1,5.6-0.6l0.6-0.2v6.3l-0.6-0.2c-1.3-0.5-4.1-0.6-5.6-0.6
				h-3.1v4h5.5c1.1,0,3-0.1,4.4-0.3C162,18.7,162.5,18.6,162.8,18.5z"/>
			<path class="st0" d="M187.9,10.8c0,4-1.9,7.5-6.1,9.1c1,1.5,2.2,3.5,3.5,5.4c1.5,2.3,3.1,4.3,4.5,5.5l1.2,1h-12v-0.6
				c0-1.3-0.9-3.3-2.1-5.5c-1.1-1.9-2.4-3.8-3.1-5H173v2.5c0,2,0.2,6,0.9,7.8l0.3,0.8h-9.8l0.4-0.8c0.7-1.8,0.9-5.8,0.9-7.8V9.5
				c0-2-0.2-6.1-0.9-7.9l-0.4-0.8h12.5c3.4,0,6.1,1,8.1,2.7C186.8,5.3,187.9,7.8,187.9,10.8z M176.8,7.4H173v6.8h3.9
				c2.3,0,3.7-1.3,3.7-3.4C180.5,8.7,179.1,7.4,176.8,7.4z"/>
		</g>
		<g>
			<path class="st0" d="M42.5,35.7c0,0-0.5,1.2-0.5,4.4c0,3.2,0.5,4.4,0.5,4.4h-2.7c-0.8,0.2-1.8,0.3-2.9,0.3c-5,0-7.9-3-7.9-8.4
				c0-5,3.1-8.4,8.1-8.4c1.2,0,2.2,0.2,3,0.4l0,0h0.1c0.8,0.2,1.4,0,1.4,0v4.4c0,0-1.8-1.9-4.5-1.9c-3,0-4.7,2.3-4.7,5.5
				c0,3.2,1.6,5.5,4.8,5.5c0.5,0,1,0,1.5-0.1c0-0.5,0-1,0-1.6c0-3.2-0.5-4.4-0.5-4.4h4.3V35.7z"/>
			<path class="st0" d="M52.6,41.5c3.2,0,4.4-0.5,4.4-0.5l-0.3,3.4H44.3c0,0,0.5-1.2,0.5-4.4v-7.5c0-3.2-0.5-4.4-0.5-4.4h1.9H56
				l0.3,3.4c0,0-1.3-0.5-4.4-0.5H48c0,0.4,0,0.9,0,1.5v2.3h2.7c3.2,0,4.4-0.5,4.4-0.5v3.9c0,0-1.2-0.5-4.4-0.5H48V40
				c0,0.5,0,1,0,1.4L52.6,41.5L52.6,41.5z"/>
			<path class="st0" d="M73.6,40.1c0,3.2,0.5,4.4,0.5,4.4h-5.2l-6.5-11.6v7.3c0,3.2,0.5,4.4,0.5,4.4h-4.2c0,0,0.5-1.2,0.5-4.4v-7.5
				c0-3.2-0.5-4.4-0.5-4.4h5.2l6.5,11.6v-7.3c0-3.2-0.5-4.4-0.5-4.4H74c0,0-0.5,1.2-0.5,4.4L73.6,40.1L73.6,40.1z"/>
			<path class="st0" d="M84.3,41.5c3.2,0,4.4-0.5,4.4-0.5l-0.3,3.4H76c0,0,0.5-1.2,0.5-4.4v-7.5c0-3.2-0.5-4.4-0.5-4.4h1.9h9.8
				l0.3,3.4c0,0-1.3-0.5-4.4-0.5h-3.9c0,0.4,0,0.9,0,1.5v2.3h2.7c3.2,0,4.4-0.5,4.4-0.5v3.9c0,0-1.2-0.5-4.4-0.5h-2.7V40
				c0,0.5,0,1,0,1.4L84.3,41.5L84.3,41.5z"/>
			<path class="st0" d="M103.2,44.4H98c0,0,0-1.3-1.6-3.9L95,38.4h-1V40c0,3.2,0.5,4.4,0.5,4.4h-4.2c0,0,0.5-1.2,0.5-4.4v-7.5
				c0-3.2-0.5-4.4-0.5-4.4h6.2c3.2,0,5.6,1.8,5.6,5.1c0,2.5-1.4,4.1-3.4,4.8l1.8,2.7C102,43.5,103.2,44.4,103.2,44.4z M94,35.5h2.4
				c1.2,0,2.3-0.7,2.3-2.2c0-1.5-1.1-2.2-2.3-2.2H94c0,0.4,0,0.9,0,1.5V35.5z"/>
			<path class="st0" d="M118,40.1c0.9,3.2,1.8,4.4,1.8,4.4h-4.6c0,0,0.2-1-0.5-3.6h-5.4c-0.6,2.6-0.5,3.6-0.5,3.6h-4.6
				c0,0,0.8-1.2,1.8-4.4l2.2-7.5c1-3.2,0.8-4.4,0.8-4.4h5.9c0,0-0.1,1.2,0.8,4.4L118,40.1z M114,37.9l-1.4-5.3
				c-0.2-0.6-0.3-1.2-0.5-1.7c-0.2,0.5-0.3,1.1-0.5,1.7l-1.4,5.3H114z"/>
			<path class="st0" d="M126.9,31.1V40c0,3.2,0.5,4.4,0.5,4.4h-4.2c0,0,0.5-1.2,0.5-4.4v-8.9c-3.2,0-4.4,0.5-4.4,0.5l0.3-3.4H131
				l0.3,3.4C131.3,31.6,130.1,31.1,126.9,31.1z"/>
			<path class="st0" d="M147.7,33.1c0.4,1,0.6,2.1,0.6,3.2c0,1.1-0.2,2.2-0.6,3.2s-1,1.9-1.8,2.6c-0.8,0.7-1.7,1.3-2.6,1.8
				c-1,0.4-2.1,0.6-3.2,0.6c-1.1,0-2.2-0.2-3.2-0.6c-1-0.4-1.9-1-2.6-1.8c-0.7-0.8-1.3-1.6-1.8-2.6c-0.4-1-0.6-2.1-0.6-3.2
				s0.2-2.2,0.6-3.2c0.4-1,1-1.9,1.8-2.6c0.8-0.8,1.7-1.3,2.6-1.8c1-0.4,2.1-0.6,3.2-0.6s2.2,0.2,3.2,0.6s1.9,1,2.6,1.8
				C146.7,31.3,147.3,32.1,147.7,33.1z M144.9,36.3c0-3-2-5.4-4.8-5.4c-2.8,0-4.8,2.4-4.8,5.4s2,5.4,4.8,5.4
				C142.9,41.7,144.9,39.3,144.9,36.3z"/>
			<path class="st0" d="M162.8,44.4h-5.2c0,0,0-1.3-1.6-3.9l-1.3-2.1h-1V40c0,3.2,0.5,4.4,0.5,4.4H150c0,0,0.5-1.2,0.5-4.4v-7.5
				c0-3.2-0.5-4.4-0.5-4.4h6.2c3.2,0,5.6,1.8,5.6,5.1c0,2.5-1.4,4.1-3.4,4.8l1.8,2.7C161.6,43.5,162.8,44.4,162.8,44.4z M153.6,35.5
				h2.4c1.2,0,2.3-0.7,2.3-2.2c0-1.5-1.1-2.2-2.3-2.2h-2.4c0,0.4,0,0.9,0,1.5V35.5z"/>
		</g>
	</g>
	<g>
		<path class="st0" d="M10.7,16.3c0-1.1,0-2.3,0-3.4c0-0.1,0-0.2,0.1-0.2c2-1.1,3.9-2.3,5.9-3.4c0.1-0.1,0.2-0.1,0.3,0
			c1.2,0.7,2.3,1.4,3.5,2c0.8,0.4,1.5,0.9,2.3,1.3c0.1,0.1,0.1,0.1,0.1,0.2c0,2.3,0,4.5,0,6.8c0,0.1,0,0.2-0.1,0.2
			c-1.5,0.9-3,1.7-4.5,2.6c-0.5,0.3-0.9,0.5-1.4,0.8c-0.1,0-0.1,0-0.2,0c-1.1-0.6-2.1-1.2-3.2-1.8c-0.9-0.5-1.8-1-2.7-1.6
			c-0.1-0.1-0.1-0.1-0.1-0.2C10.7,18.5,10.7,17.4,10.7,16.3L10.7,16.3z M19.1,15c-1.5,0-3,0-4.5,0c0.8,1.3,1.5,2.6,2.3,3.9
			C17.6,17.5,18.3,16.3,19.1,15z M14.6,14c1.5,0,3,0,4.5,0c-0.7-1.2-1.5-2.3-2.2-3.5C16.1,11.7,15.4,12.9,14.6,14z M21.8,19.1
			c-0.6-1.2-1.3-2.4-1.9-3.7c-0.7,1.3-1.5,2.6-2.2,3.9C19,19.2,20.4,19.2,21.8,19.1z M16,19.3c-0.7-1.3-1.5-2.6-2.2-3.9
			c-0.7,1.2-1.3,2.5-1.9,3.7C13.3,19.2,14.6,19.2,16,19.3z M22,17.6L22,17.6c0-1.3,0-2.6,0-3.9c-0.5,0.3-1.1,0.6-1.6,0.9
			C21,15.7,21.5,16.7,22,17.6z M18.2,11L18.2,11c0.6,1,1.2,1.9,1.8,2.9c0.5-0.3,1.1-0.6,1.6-0.9C20.5,12.3,19.4,11.7,18.2,11z
			 M12,13c0.1,0,0.1,0.1,0.1,0.1c0.5,0.3,0.9,0.5,1.4,0.8c0.1,0.1,0.1,0.1,0.2,0c0.6-0.9,1.1-1.8,1.7-2.6c0,0,0-0.1,0.1-0.1l0,0
			C14.3,11.7,13.2,12.3,12,13z M20.6,20.1L20.6,20.1c-0.1,0-0.2,0-0.3,0c-1,0-1.9,0.1-2.9,0.1c-0.1,0-0.1,0-0.1,0.1c0,0.5,0,1,0,1.6
			V22C18.4,21.4,19.5,20.7,20.6,20.1z M11.6,17.6L11.6,17.6c0.5-1,1.1-2,1.6-3c-0.5-0.3-1.1-0.6-1.6-0.9
			C11.6,15.1,11.6,16.4,11.6,17.6z M13,20.1c1.1,0.6,2.2,1.3,3.3,1.9l0,0c0-0.6,0-1.1,0-1.7c0-0.1,0-0.1-0.1-0.1c-0.3,0-0.5,0-0.8,0
			c-0.5,0-1.1,0-1.6-0.1C13.6,20.1,13.3,20.1,13,20.1z"/>
	</g>
</g>
</svg>
