<?xml version="1.0" encoding="utf-8"?>
<!-- Generator: Adobe Illustrator 25.1.0, SVG Export Plug-In . SVG Version: 6.00 Build 0)  -->
<svg version="1.1" id="Layer_1" xmlns="http://www.w3.org/2000/svg" xmlns:xlink="http://www.w3.org/1999/xlink" x="0px" y="0px"
	 viewBox="0 0 191.1 44.2" style="enable-background:new 0 0 191.1 44.2;" xml:space="preserve">
<style type="text/css">
	.st0{fill:#FFFFFF;}
</style>
<g>
	<g>
		<g>
			<path class="st0" d="M15.5,32.3C4.4,32.3,0,25.1,0,16.1C0,7.5,5.3,0,15.8,0c2.1,0,3.9,0.3,5.8,0.8C22,1,22.4,1,22.9,1
				c0.4,0,0.8,0,1.1-0.1l0.9-0.4v10.5l-1.1-1.2c-1.8-2-5.1-3.3-7.9-3.3c-5.8,0-8.2,4.6-8.2,9.5c0,5.3,2.3,9.6,8.4,9.6
				c3.1,0,7-1.4,9.1-3.4l1.1-1.1v8.6L26,30c-0.8,0.4-1.5,0.7-2.4,1C20.9,31.9,17.9,32.3,15.5,32.3z"/>
			<path class="st0" d="M41.6,17.5V15h-7.9v2.5c0,1.4,0.2,4.2,0.6,5.5l0.2,0.6h-6.9l0.2-0.6c0.5-1.2,0.6-4.1,0.6-5.5V7.8
				c0-1.4-0.1-4.3-0.6-5.5l-0.2-0.6h6.9l-0.2,0.6c-0.5,1.2-0.6,4.1-0.6,5.5v2.5h7.9V7.8c0-1.4-0.1-4.3-0.6-5.5l-0.2-0.6h6.9
				l-0.2,0.6c-0.5,1.2-0.6,4.1-0.6,5.5v9.6c0,1.4,0.1,4.2,0.6,5.5l0.2,0.6h-6.9L41,23c0.1-0.3,0.2-0.7,0.3-1.2
				C41.5,20.4,41.6,18.5,41.6,17.5z"/>
			<path class="st0" d="M55.3,23.5H48l0.5-0.6c0.9-1.3,1.8-3.9,2.3-5.5l2.9-9.6c0.4-1.3,1.2-4.2,1-5.5l-0.1-0.5h8.8l-0.1,0.4
				c0,1.9,0.5,3.6,1,5.5l2.9,9.6c0.5,1.6,1.3,4.2,2.3,5.5l0.5,0.6h-7.4l0.1-0.5c0-1.5-0.2-2.8-0.6-4.2h-6.3
				c-0.2,1.2-0.7,3.2-0.5,4.2L55.3,23.5z M60.9,14.2c-0.6-2.4-1.2-4.8-1.9-7.1c-0.7,2.4-1.3,4.8-1.9,7.1H60.9z"/>
			<path class="st0" d="M86.8,8.8c0,2.8-1.3,5.3-4.3,6.4c0.7,1.1,1.5,2.4,2.5,3.8c1.1,1.6,2.2,3,3.2,3.8l0.9,0.7h-8.5l0-0.4
				c0-0.9-0.6-2.3-1.5-3.8c-0.8-1.3-1.7-2.7-2.2-3.5h-0.6v1.7c0,1.4,0.1,4.2,0.6,5.5l0.2,0.6h-6.9l0.2-0.6c0.5-1.2,0.6-4,0.6-5.5
				V7.8c0-1.4-0.2-4.3-0.6-5.5l-0.2-0.6h8.7c2.3,0,4.3,0.7,5.7,1.9C86.1,4.9,86.8,6.7,86.8,8.8z M79.1,6.4h-2.7v4.8h2.7
				c1.6,0,2.6-0.9,2.6-2.4C81.7,7.3,80.7,6.4,79.1,6.4z"/>
			<path class="st0" d="M96.8,23.5h-7.4l0.5-0.6c0.9-1.3,1.8-3.9,2.3-5.5l2.9-9.6c0.4-1.3,1.2-4.2,1-5.5L96,1.8h8.8l-0.1,0.4
				c0,1.9,0.5,3.6,1,5.5l2.9,9.6c0.5,1.6,1.3,4.2,2.3,5.5l0.5,0.6H104l0.1-0.5c0-1.5-0.2-2.8-0.6-4.2h-6.3c-0.2,1.2-0.7,3.2-0.5,4.2
				L96.8,23.5z M102.4,14.2c-0.6-2.4-1.2-4.8-1.9-7.1c-0.7,2.4-1.3,4.8-1.9,7.1H102.4z"/>
			<path class="st0" d="M121.3,23.9c-7.8,0-10.8-5-10.8-11.3c0-6.1,3.7-11.3,11.1-11.3c1.5,0,2.7,0.2,4,0.6c0.2,0.1,0.5,0.1,0.9,0.1
				c0.2,0,0.6,0,0.8-0.1l0.6-0.2v7.4l-0.8-0.9c-1.2-1.4-3.6-2.3-5.5-2.3c-4.1,0-5.7,3.2-5.7,6.7c0,3.7,1.6,6.7,5.9,6.7
				c2.2,0,4.9-1,6.4-2.3l0.8-0.7v6l-0.2,0.1c-0.5,0.3-1.1,0.5-1.7,0.7C125.1,23.7,123,23.9,121.3,23.9z"/>
			<path class="st0" d="M134.5,17.5V6.4c-1.6,0-4,0.2-5.1,0.6l-0.7,0.3l0.5-5.5H145l0.6,5.5L144.8,7c-1.1-0.4-3.6-0.6-5.2-0.6v11.1
				c0,1.4,0.2,4.2,0.6,5.5l0.2,0.6h-6.9l0.2-0.6c0.1-0.3,0.2-0.7,0.3-1.2C134.5,20.4,134.5,18.5,134.5,17.5z"/>
			<path class="st0" d="M162.8,18.3l0.7-0.2l-0.5,5.4h-17.3l0.2-0.6c0.5-1.2,0.6-4,0.6-5.5V7.8c0-1.4-0.2-4.3-0.6-5.5l-0.2-0.6h16.5
				l0.5,5.5L161.9,7c-1.3-0.5-4.1-0.6-5.6-0.6h-4.6v4h3.1c1.4,0,4.3-0.1,5.6-0.6l0.6-0.2v6.3l-0.6-0.2c-1.3-0.5-4.1-0.6-5.6-0.6
				h-3.1v4h5.5c1.1,0,3-0.1,4.4-0.3C162,18.5,162.5,18.4,162.8,18.3z"/>
			<path class="st0" d="M187.9,10.6c0,4-1.9,7.5-6.1,9.1c1,1.5,2.2,3.5,3.5,5.4c1.5,2.3,3.1,4.3,4.5,5.5l1.2,1H179l0-0.6
				c0-1.3-0.9-3.3-2.1-5.5c-1.1-1.9-2.4-3.8-3.1-5H173V23c0,2,0.2,6,0.9,7.8l0.3,0.8h-9.8l0.4-0.8c0.7-1.8,0.9-5.8,0.9-7.8V9.3
				c0-2-0.2-6.1-0.9-7.9l-0.4-0.8h12.5c3.4,0,6.1,1,8.1,2.7C186.8,5.1,187.9,7.6,187.9,10.6z M176.8,7.2H173V14h3.9
				c2.3,0,3.7-1.3,3.7-3.4C180.5,8.5,179.1,7.2,176.8,7.2z"/>
		</g>
		<g>
			<path class="st0" d="M42.5,35.5c0,0-0.5,1.2-0.5,4.4c0,3.2,0.5,4.4,0.5,4.4h-2.7c-0.8,0.2-1.8,0.3-2.9,0.3c-5,0-7.9-3-7.9-8.4
				c0-5,3.1-8.4,8.1-8.4c1.2,0,2.2,0.2,3,0.4h0c0,0,0.1,0,0.1,0c0.8,0.2,1.4,0,1.4,0v4.4c0,0-1.8-1.9-4.5-1.9c-3,0-4.7,2.3-4.7,5.5
				c0,3.2,1.6,5.5,4.8,5.5c0.5,0,1,0,1.5-0.1c0-0.5,0-1,0-1.6c0-3.2-0.5-4.4-0.5-4.4H42.5z"/>
			<path class="st0" d="M52.6,41.3c3.2,0,4.4-0.5,4.4-0.5l-0.3,3.4H44.3c0,0,0.5-1.2,0.5-4.4v-7.5c0-3.2-0.5-4.4-0.5-4.4h1.9h9.8
				l0.3,3.4c0,0-1.3-0.5-4.4-0.5h-3.9c0,0.4,0,0.9,0,1.5v2.3h2.7c3.2,0,4.4-0.5,4.4-0.5v3.9c0,0-1.2-0.5-4.4-0.5h-2.7v2.3
				c0,0.5,0,1,0,1.4H52.6z"/>
			<path class="st0" d="M73.6,39.9c0,3.2,0.5,4.4,0.5,4.4h-5.2l-6.5-11.6v7.3c0,3.2,0.5,4.4,0.5,4.4h-4.2c0,0,0.5-1.2,0.5-4.4v-7.5
				c0-3.2-0.5-4.4-0.5-4.4h5.2l6.5,11.6v-7.3c0-3.2-0.5-4.4-0.5-4.4H74c0,0-0.5,1.2-0.5,4.4V39.9z"/>
			<path class="st0" d="M84.3,41.3c3.2,0,4.4-0.5,4.4-0.5l-0.3,3.4H76c0,0,0.5-1.2,0.5-4.4v-7.5c0-3.2-0.5-4.4-0.5-4.4h1.9h9.8
				l0.3,3.4c0,0-1.3-0.5-4.4-0.5h-3.9c0,0.4,0,0.9,0,1.5v2.3h2.7c3.2,0,4.4-0.5,4.4-0.5v3.9c0,0-1.2-0.5-4.4-0.5h-2.7v2.3
				c0,0.5,0,1,0,1.4H84.3z"/>
			<path class="st0" d="M103.2,44.2h-5.2c0,0,0-1.3-1.6-3.9L95,38.2h-1v1.6c0,3.2,0.5,4.4,0.5,4.4h-4.2c0,0,0.5-1.2,0.5-4.4v-7.5
				c0-3.2-0.5-4.4-0.5-4.4h6.2c3.2,0,5.6,1.8,5.6,5.1c0,2.5-1.4,4.1-3.4,4.8l1.8,2.7C102,43.3,103.2,44.2,103.2,44.2z M94,35.3h2.4
				c1.2,0,2.3-0.7,2.3-2.2c0-1.5-1.1-2.2-2.3-2.2H94c0,0.4,0,0.9,0,1.5V35.3z"/>
			<path class="st0" d="M118,39.9c0.9,3.2,1.8,4.4,1.8,4.4h-4.6c0,0,0.2-1-0.5-3.6h-5.4c-0.6,2.6-0.5,3.6-0.5,3.6h-4.6
				c0,0,0.8-1.2,1.8-4.4l2.2-7.5c1-3.2,0.8-4.4,0.8-4.4h5.9c0,0-0.1,1.2,0.8,4.4L118,39.9z M114,37.7l-1.4-5.3
				c-0.2-0.6-0.3-1.2-0.5-1.7c-0.2,0.5-0.3,1.1-0.5,1.7l-1.4,5.3H114z"/>
			<path class="st0" d="M126.9,30.9v8.9c0,3.2,0.5,4.4,0.5,4.4h-4.2c0,0,0.5-1.2,0.5-4.4v-8.9c-3.2,0-4.4,0.5-4.4,0.5l0.3-3.4H131
				l0.3,3.4C131.3,31.4,130.1,30.9,126.9,30.9z"/>
			<path class="st0" d="M147.7,32.9c0.4,1,0.6,2.1,0.6,3.2c0,1.1-0.2,2.2-0.6,3.2c-0.4,1-1,1.9-1.8,2.6c-0.8,0.7-1.7,1.3-2.6,1.8
				c-1,0.4-2.1,0.6-3.2,0.6c-1.1,0-2.2-0.2-3.2-0.6c-1-0.4-1.9-1-2.6-1.8c-0.7-0.8-1.3-1.6-1.8-2.6c-0.4-1-0.6-2.1-0.6-3.2
				c0-1.1,0.2-2.2,0.6-3.2c0.4-1,1-1.9,1.8-2.6c0.8-0.8,1.7-1.3,2.6-1.8c1-0.4,2.1-0.6,3.2-0.6c1.1,0,2.2,0.2,3.2,0.6
				c1,0.4,1.9,1,2.6,1.8C146.7,31.1,147.3,31.9,147.7,32.9z M144.9,36.1c0-3-2-5.4-4.8-5.4c-2.8,0-4.8,2.4-4.8,5.4s2,5.4,4.8,5.4
				C142.9,41.5,144.9,39.1,144.9,36.1z"/>
			<path class="st0" d="M162.8,44.2h-5.2c0,0,0-1.3-1.6-3.9l-1.3-2.1h-1v1.6c0,3.2,0.5,4.4,0.5,4.4h-4.2c0,0,0.5-1.2,0.5-4.4v-7.5
				c0-3.2-0.5-4.4-0.5-4.4h6.2c3.2,0,5.6,1.8,5.6,5.1c0,2.5-1.4,4.1-3.4,4.8l1.8,2.7C161.6,43.3,162.8,44.2,162.8,44.2z M153.6,35.3
				h2.4c1.2,0,2.3-0.7,2.3-2.2c0-1.5-1.1-2.2-2.3-2.2h-2.4c0,0.4,0,0.9,0,1.5V35.3z"/>
		</g>
	</g>
	<g>
		<path class="st0" d="M10.7,16.1c0-1.1,0-2.3,0-3.4c0-0.1,0-0.2,0.1-0.2c2-1.1,3.9-2.3,5.9-3.4C16.8,9,16.9,9,17,9.1
			c1.2,0.7,2.3,1.4,3.5,2c0.8,0.4,1.5,0.9,2.3,1.3c0.1,0.1,0.1,0.1,0.1,0.2c0,2.3,0,4.5,0,6.8c0,0.1,0,0.2-0.1,0.2
			c-1.5,0.9-3,1.7-4.5,2.6c-0.5,0.3-0.9,0.5-1.4,0.8c-0.1,0-0.1,0-0.2,0c-1.1-0.6-2.1-1.2-3.2-1.8c-0.9-0.5-1.8-1-2.7-1.6
			c-0.1-0.1-0.1-0.1-0.1-0.2C10.7,18.3,10.7,17.2,10.7,16.1C10.7,16.1,10.7,16.1,10.7,16.1z M19.1,14.8c-1.5,0-3,0-4.5,0
			c0.8,1.3,1.5,2.6,2.3,3.9C17.6,17.3,18.3,16.1,19.1,14.8z M14.6,13.8c1.5,0,3,0,4.5,0c-0.7-1.2-1.5-2.3-2.2-3.5
			C16.1,11.5,15.4,12.7,14.6,13.8z M21.8,18.9c-0.6-1.2-1.3-2.4-1.9-3.7c-0.7,1.3-1.5,2.6-2.2,3.9C19,19,20.4,19,21.8,18.9z
			 M16,19.1c-0.7-1.3-1.5-2.6-2.2-3.9c-0.7,1.2-1.3,2.5-1.9,3.7C13.3,19,14.6,19,16,19.1z M22,17.4C22,17.4,22,17.4,22,17.4
			c0-1.3,0-2.6,0-3.9c-0.5,0.3-1.1,0.6-1.6,0.9C21,15.5,21.5,16.5,22,17.4z M18.2,10.8C18.2,10.8,18.2,10.8,18.2,10.8
			c0.6,1,1.2,1.9,1.8,2.9c0.5-0.3,1.1-0.6,1.6-0.9C20.5,12.1,19.4,11.5,18.2,10.8z M12,12.8c0.1,0,0.1,0.1,0.1,0.1
			c0.5,0.3,0.9,0.5,1.4,0.8c0.1,0.1,0.1,0.1,0.2,0c0.6-0.9,1.1-1.8,1.7-2.6c0,0,0-0.1,0.1-0.1c0,0,0,0,0,0
			C14.3,11.5,13.2,12.1,12,12.8z M20.6,19.9C20.6,19.9,20.6,19.9,20.6,19.9c-0.1,0-0.2,0-0.3,0c-1,0-1.9,0.1-2.9,0.1
			c-0.1,0-0.1,0-0.1,0.1c0,0.5,0,1,0,1.6c0,0,0,0.1,0,0.1C18.4,21.2,19.5,20.5,20.6,19.9z M11.6,17.4C11.6,17.4,11.6,17.4,11.6,17.4
			c0.5-1,1.1-2,1.6-3c-0.5-0.3-1.1-0.6-1.6-0.9C11.6,14.9,11.6,16.2,11.6,17.4z M13,19.9c1.1,0.6,2.2,1.3,3.3,1.9c0,0,0,0,0,0
			c0-0.6,0-1.1,0-1.7c0-0.1,0-0.1-0.1-0.1c-0.3,0-0.5,0-0.8,0c-0.5,0-1.1,0-1.6-0.1C13.6,19.9,13.3,19.9,13,19.9z"/>
	</g>
</g>
</svg>
