<?xml version="1.0" encoding="utf-8"?>
<!-- Generator: Adobe Illustrator 25.2.0, SVG Export Plug-In . SVG Version: 6.00 Build 0)  -->
<svg version="1.1" id="Layer_1" xmlns="http://www.w3.org/2000/svg" xmlns:xlink="http://www.w3.org/1999/xlink" x="0px" y="0px"
	 viewBox="0 0 16 16" style="enable-background:new 0 0 16 16;" xml:space="preserve">
<style type="text/css">
	.st0{fill:#1565C0;}
</style>
<g>
	<g>
		<path class="st0" d="M1.5,8c0-1.2,0-2.4,0-3.6c0-0.1,0-0.2,0.1-0.2c2.1-1.2,4.2-2.4,6.2-3.6C8,0.5,8,0.5,8.1,0.5
			c1.2,0.7,2.5,1.4,3.8,2.2c0.8,0.5,1.6,1,2.5,1.4c0.1,0.1,0.1,0.1,0.1,0.2c0,2.4,0,4.8,0,7.2c0,0.1,0,0.2-0.1,0.2
			c-1.6,0.9-3.2,1.9-4.8,2.8c-0.5,0.3-1,0.6-1.5,0.8c-0.1,0-0.1,0-0.2,0c-1.1-0.7-2.3-1.3-3.4-2c-1-0.6-1.9-1.1-2.9-1.7
			c-0.1-0.1-0.1-0.1-0.1-0.2C1.5,10.4,1.5,9.2,1.5,8C1.5,8,1.5,8,1.5,8z M10.4,6.6c-1.6,0-3.2,0-4.8,0C6.4,8,7.2,9.4,8,10.8
			C8.8,9.4,9.6,8,10.4,6.6z M5.6,5.6c1.6,0,3.2,0,4.7,0C9.6,4.4,8.8,3.1,8,1.9C7.2,3.1,6.4,4.4,5.6,5.6z M13.3,11
			c-0.7-1.3-1.4-2.6-2.1-3.9c-0.8,1.4-1.6,2.7-2.4,4.1C10.3,11.1,11.8,11.1,13.3,11z M7.1,11.2C6.4,9.8,5.6,8.5,4.8,7.1
			C4.1,8.4,3.4,9.7,2.7,11C4.2,11.1,5.7,11.1,7.1,11.2z M13.5,9.5C13.5,9.5,13.6,9.5,13.5,9.5c0-1.4,0-2.7,0-4.1
			c-0.6,0.3-1.1,0.7-1.7,1C12.4,7.4,13,8.4,13.5,9.5z M9.5,2.4C9.5,2.4,9.5,2.4,9.5,2.4c0.6,1,1.2,2.1,1.9,3.1
			c0.6-0.3,1.1-0.6,1.7-1C11.9,3.8,10.7,3.1,9.5,2.4z M2.9,4.5C3,4.5,3,4.5,3,4.6c0.5,0.3,1,0.6,1.5,0.8c0.1,0.1,0.1,0.1,0.2,0
			c0.6-0.9,1.2-1.9,1.8-2.8c0,0,0-0.1,0.1-0.1c0,0,0,0,0,0C5.3,3.1,4.1,3.8,2.9,4.5z M12.1,12.1C12,12.1,12,12,12.1,12.1
			c-0.1,0-0.2,0-0.3,0c-1,0-2.1,0.1-3.1,0.1c-0.1,0-0.1,0-0.1,0.1c0,0.6,0,1.1,0,1.7c0,0,0,0.1,0,0.1C9.7,13.4,10.9,12.8,12.1,12.1z
			 M2.4,9.5C2.5,9.5,2.5,9.5,2.4,9.5c0.6-1,1.1-2.1,1.7-3.2C3.6,6,3,5.6,2.4,5.3C2.4,6.7,2.4,8.1,2.4,9.5z M3.9,12.1
			c1.2,0.7,2.4,1.4,3.6,2.1c0,0,0,0,0-0.1c0-0.6,0-1.2,0-1.8c0-0.1,0-0.1-0.1-0.1c-0.3,0-0.6,0-0.9,0c-0.6,0-1.1-0.1-1.7-0.1
			C4.5,12.1,4.2,12.1,3.9,12.1z"/>
	</g>
</g>
</svg>
