<?xml version="1.0" encoding="utf-8"?>
<!-- Generator: Adobe Illustrator 25.1.0, SVG Export Plug-In . SVG Version: 6.00 Build 0)  -->
<svg version="1.1" id="Layer_1" xmlns="http://www.w3.org/2000/svg" xmlns:xlink="http://www.w3.org/1999/xlink" x="0px" y="0px"
	 viewBox="0 0 50 50" style="enable-background:new 0 0 50 50;" xml:space="preserve">
<style type="text/css">
	.st0{fill:#001A3D;}
</style>
<g>
	<path class="st0" d="M49.2,45.3L35.6,31.6c5.8-7.7,5.2-18.8-1.8-25.8c-7.7-7.7-20.2-7.7-28,0C2.1,9.5,0,14.5,0,19.8
		C0,25,2.1,30,5.8,33.7c3.9,3.9,8.9,5.8,14,5.8c4.2,0,8.4-1.3,11.9-4l13.6,13.6c0.5,0.5,1.3,0.8,2,0.8s1.4-0.3,2-0.8
		C50.3,48.1,50.3,46.3,49.2,45.3z M9.7,29.8c-5.5-5.5-5.5-14.6,0-20.1c2.8-2.8,6.4-4.2,10-4.2c3.6,0,7.3,1.4,10,4.2
		c5.5,5.5,5.5,14.6,0,20.1C24.3,35.3,15.3,35.3,9.7,29.8z"/>
</g>
</svg>
